<svg xmlns="http://www.w3.org/2000/svg" width="220" height="220" viewBox="0 0 220 220" fill="none"><metadata><rdf:RDF xmlns:rdf="http://www.w3.org/1999/02/22-rdf-syntax-ns#" xmlns:dc="http://purl.org/dc/elements/1.1/"><rdf:Description><dc:creator>RealFaviconGenerator</dc:creator><dc:source>https://realfavicongenerator.net</dc:source></rdf:Description></rdf:RDF></metadata><path d="M176 0H44C19.6995 0 0 19.6995 0 44V176C0 200.301 19.6995 220 44 220H176C200.301 220 220 200.301 220 176V44C220 19.6995 200.301 0 176 0Z" fill="#0A0A0A"></path><path d="M156.963 88.752H151.699C150.286 84.6048 148.008 80.1615 144.863 75.4219C141.764 70.6823 138.893 68.1302 136.25 67.7656C134.792 67.5833 132.992 67.4238 130.85 67.2871C128.708 67.1504 126.862 67.082 125.312 67.082H122.1V143.166C122.1 144.807 122.396 146.265 122.988 147.541C123.581 148.771 124.743 149.751 126.475 150.48C127.523 150.891 129.141 151.324 131.328 151.779C133.561 152.189 135.452 152.486 137.002 152.668V158H82.9297V152.668C84.2513 152.531 86.097 152.349 88.4668 152.121C90.8822 151.848 92.5228 151.529 93.3887 151.164C95.166 150.435 96.3509 149.455 96.9434 148.225C97.5358 146.994 97.832 145.536 97.832 143.85V67.082H94.6191C93.0697 67.082 91.224 67.1504 89.082 67.2871C86.9401 67.4238 85.14 67.5833 83.6816 67.7656C81.0384 68.1302 78.1445 70.6823 75 75.4219C71.901 80.1615 69.6452 84.6048 68.2324 88.752H62.9688V60.998H156.963V88.752Z" fill="white"></path><path d="M172 80C183.046 80 192 71.0457 192 60C192 48.9543 183.046 40 172 40C160.954 40 152 48.9543 152 60C152 71.0457 160.954 80 172 80Z" fill="#B91D40"></path></svg>